<svg width="1123.055" height="953.89" viewBox="0 0 297.142 252.383" xml:space="preserve" xmlns="http://www.w3.org/2000/svg"><path style="fill:#000;stroke:none;stroke-width:.0846667" d="M-373.299 384.598h-9.652v16.341c0 .444.124 1.117-.087 1.52-.46.88-1.872 1.676-2.622 2.326-1.673 1.45-3.309 3-4.818 4.62-5.073 5.446-9.521 11.487-12.77 18.204-7.012 14.49-8.536 31.32-3.745 46.736 1.792 5.77 4.38 11.243 7.613 16.34 2.43 3.832 5.248 7.473 8.383 10.753 1.047 1.096 2.06 2.426 3.305 3.302v.085c-.985.956-1.636 2.554-2.354 3.725-1.588 2.592-3.177 5.184-4.741 7.79-4.959 8.265-9.953 16.516-14.725 24.892-1.82 3.194-3.663 6.377-5.492 9.567l-1.487 2.625c-.204.357-.393.868-.758 1.088-.759.458-2.01.482-2.87.68-2.549.585-5.135 1.02-7.705 1.5-10.1 1.89-20.47 2.997-30.734 2.997-3.466 0-6.879-.185-10.33-.422-1.099-.074-2.892-.79-3.35.591-.162.487.423.959.727 1.27.984 1.009 2.004 1.94 3.132 2.783 3.376 2.53 7.372 3.994 11.345 5.289 1.559.508 3.362.76 4.826 1.496-5.075 2.113-9.95 4.118-15.579 3.733-.889-.061-1.838.03-2.709-.177.657 1.552 2.494 3.021 3.81 4.01 4.34 3.262 9.761 4.533 15.07 5.063 12.753 1.275 25.784-1.444 38.185-4.198 3.31-.736 6.607-1.544 9.906-2.325 1.65-.391 3.39-.973 5.08-1.111.055 1.259.482 2.578.745 3.81.393 1.852.475 3.922 1.883 5.33 1.734 1.735 4.312 1.787 6.601 1.542 4.92-.526 9.751-2.013 14.563-3.117 16.292-3.739 32.923-6.238 49.614-6.969 5.029-.22 10.14.113 15.156.332 10.692.468 21.335 1.376 31.92 3.13 6.448 1.068 12.796 2.602 19.134 4.186 2.526.632 6.114 1.77 8.466.12 1.78-1.248 1.728-3.285 1.961-5.231.116-.977.317-1.98.325-2.964 4.688.91 9.317 2.18 13.97 3.247a237.783 237.783 0 0 0 16.764 3.224c1.277.198 2.531.549 3.81.701.674.08 1.35-.03 2.032.04 5.033.502 10.025.701 15.071.331 5.39-.395 11.061-1.697 15.494-4.93 1.452-1.06 3.223-2.515 4.064-4.137-1.584 0-3.152.236-4.741.166-3.192-.14-6.32-.824-9.314-1.94-1.262-.47-3.277-.986-4.233-1.951 1.51-.222 3.027-.856 4.487-1.294 4.104-1.23 8.214-2.826 11.684-5.385a23.484 23.484 0 0 0 3.136-2.804c.392-.415.95-.833.637-1.44-.533-1.028-1.695-.562-2.672-.447-2.361.28-4.82.448-7.197.448-7.924 0-15.759-.307-23.622-1.331-1.92-.25-3.845-.494-5.757-.807-.648-.106-1.676-.056-2.138-.582-1.159-1.323-2.08-2.951-3.088-4.392l-5.926-8.467-18.966-27.093c-2.39-3.415-4.764-6.842-7.17-10.245-.638-.9-1.26-1.81-1.9-2.71-.212-.296-.727-.808-.736-1.184-.01-.447.777-.98 1.061-1.27 1.022-1.049 1.978-2.177 2.914-3.302 3.418-4.106 6.291-8.515 8.83-13.208 6.62-12.24 8.498-26.86 6.2-40.471-1.925-11.396-7.301-22.092-14.592-30.988-2.165-2.64-4.514-5.252-7.076-7.511-.933-.823-1.84-1.675-2.794-2.473-.39-.325-1.107-.724-1.304-1.206-.178-.437-.05-1.128-.05-1.595v-3.725c0-4.181-.086-8.35-.086-12.53h-6.519c.94-.845 2.3-1.317 3.387-1.965 2.416-1.442 4.751-2.99 6.68-5.063.992-1.065 1.839-2.347 2.32-3.725.222-.635.177-1.54.485-2.11.315-.581 1.215-.983 1.69-1.448 1.107-1.078 2.029-2.287 2.625-3.724a14.708 14.708 0 0 0 1.1-5.164c.024-.998-.236-2.248-.049-3.21.087-.447.69-.881.928-1.278.443-.737.649-1.613.78-2.455.455-2.934-.2-5.98.328-8.89.59-3.245 3.011-5.686 4.822-8.297.342-.494 1.63-2.322.86-2.878-.298-.215-.88-.189-1.233-.23-1.292-.154-2.708-.02-3.98.229-4.967.971-9.704 3.506-13.8 6.423-12.33 8.78-22.712 19.75-32.752 31a270.726 270.726 0 0 0-8.09 9.482c-.669.823-1.346 1.639-2.02 2.456-.3.361-.575.797-1.08.841-2.61.228-5.338.005-7.959.005h-22.182c-.618 0-1.837.232-2.357-.136-.946-.67-1.7-2.296-2.356-3.25-1.6-2.327-3.249-4.621-4.857-6.943-5.413-7.817-10.91-15.578-16.362-23.368-1.759-2.512-3.504-5.033-5.275-7.535-.814-1.15-1.498-2.636-2.83-3.23-7.316-3.258-16.355.958-21.59 6.193-2.407 2.408-4.814 5.962-4.181 9.567.34 1.935 1.446 3.235 2.622 4.742 1.214 1.556 2.437 3.105 3.658 4.656 5.046 6.409 9.837 13.137 15.173 19.304m72.475-.931c.397-.797 1.076-1.497 1.619-2.201a151.748 151.748 0 0 1 3.694-4.572c4.1-4.92 8.449-9.614 12.975-14.14 4.48-4.48 9.102-8.8 13.97-12.862 5.293-4.417 10.911-8.827 17.103-11.924 1.626-.814 3.272-1.646 5.08-1.947.523-.088 1.261-.31 1.773-.103.646.26.02.964-.257 1.267-1.01 1.1-2.18 2.067-3.037 3.302-3.607 5.192-.117 12.272-4.505 17.187-3.434 3.846-8.675 4.95-13.278 6.79-6.133 2.454-12.009 5.59-17.61 9.079-3.757 2.34-7.384 4.876-10.923 7.53-.854.641-1.698 1.296-2.54 1.953-.372.29-.807.794-1.27.922-.68.188-2.122-.082-2.794-.281m-38.27.931h-3.47c-.429 0-1.126.131-1.51-.087-.825-.469-1.532-2.021-2.082-2.791-1.633-2.284-3.254-4.575-4.887-6.858-4.534-6.338-9.09-12.667-13.559-19.05-1.41-2.013-2.843-4.01-4.27-6.012-.572-.803-1.125-2.06-1.887-2.664-3.357-2.657-8.39.078-10.922 2.58a21.13 21.13 0 0 0-1.76 1.947c-.18.229-.494.537-.507.847-.021.497.732 1.22 1.01 1.608.953 1.33 2.069 2.634 2.866 4.064-2.454 1.293-5.928 1.154-8.551.563a20.324 20.324 0 0 1-2.54-.737c-.467-.17-.801-.41-1.186.005-2.622-2.6-.265-7.147 1.576-9.398 4.24-5.179 12.316-9.46 19.168-7.883.78.18 1.805.412 2.447.91 1.099.852 1.93 2.615 2.72 3.756 1.372 1.983 2.775 3.944 4.148 5.927 5.315 7.674 10.708 15.297 16.061 22.944 1.6 2.286 3.19 4.58 4.8 6.858.758 1.071 1.87 2.245 2.336 3.472m-39.709-27.01c-.76-1.231-1.685-2.379-2.528-3.555-.27-.378-.887-.968-.94-1.44-.08-.732 1.538-1.931 2.029-2.366 1.542-1.366 3.57-2.561 5.672-2.706a5.345 5.345 0 0 1 1.355.06c.561.108 1.26.271 1.66.712 1.064 1.171-.425 3.372-1.153 4.3-.674.86-1.457 1.625-2.285 2.335-1.146.982-2.435 2.018-3.81 2.66m9.06-6.688 16.376 23.03 5.129 7.196 2.37 3.471h-22.775l-2.187-.05-1.548-1.812-3.576-4.572-9.931-12.7-2.983-3.81-1.365-1.863c1.548.32 3.066.722 4.657.76 4.672.115 8.753-1.956 12.107-5.086.916-.854 1.724-1.863 2.466-2.87.406-.554.734-1.249 1.26-1.694m117.686 9.906c1.4 4.38-2.891 8.811-6.52 10.472-1.473.676-3.12.954-4.656 1.466-3.068 1.023-6.11 2.168-9.06 3.497-2.893 1.305-5.684 2.826-8.381 4.498-1.476.914-3.225 2.429-4.91 2.885-1.017.275-2.336.018-3.388.043-2.112.052-4.235.168-6.35.168.738-1.025 2.044-1.817 3.048-2.571 2.341-1.759 4.803-3.332 7.282-4.884 5.799-3.63 12.069-6.712 18.372-9.357 2.279-.957 4.644-1.69 6.943-2.594 1.601-.629 3.218-1.277 4.741-2.08.927-.49 1.877-1.248 2.88-1.543m-5.42 11.515c-.023 2.908-2.948 4.962-5.08 6.47-1.723 1.219-3.576 2.233-5.418 3.255-.937.52-2.011 1.297-3.048 1.578-1.075.29-2.528.042-3.64.042-2.31 0-4.628.085-6.944.085.893-1.08 2.492-1.882 3.641-2.686 4.41-3.085 9.421-4.892 14.478-6.571 1.372-.456 2.712-.984 4.064-1.492.633-.237 1.268-.613 1.947-.681m-5.164 13.716v4.91h-118.872v-4.91h118.872m-.085 6.35v9.736H-381.51v-9.736h118.787m-74.337 11.176v.084c-1.746.143-3.57.756-5.25 1.235-3.868 1.102-7.622 2.484-11.26 4.203-17.523 8.277-31.05 24.27-32.921 43.923-.346 3.636-.114 7.406.444 11.007.667 4.293 1.99 8.5 3.801 12.446 10.717 23.34 36.862 34.916 61.442 34.798 24.474-.118 50.184-13.605 59.774-36.915 1.515-3.684 2.588-7.642 3.062-11.6.522-4.36.52-8.686-.121-13.038-2.623-17.807-15.684-32.216-31.389-40.068-3.878-1.94-7.938-3.483-12.107-4.672-1.791-.51-3.724-1.17-5.588-1.319.504-.211 1.235-.084 1.778-.084h41.064c.629 0 1.625-.188 2.2.085 1.23.585 2.382 1.959 3.387 2.864a75.166 75.166 0 0 1 7.486 7.803c10.847 13.034 16.813 30.012 15.19 46.99a63.875 63.875 0 0 1-2.836 13.716c-8.634 26.493-33.588 44.237-59.887 50.472-33.109 7.848-72.455-1.497-94.42-28.712-4.537-5.621-8.38-11.859-10.954-18.627-7.448-19.58-4.532-41.24 7.217-58.505 2.806-4.125 6.074-7.824 9.596-11.345 1.517-1.517 3.34-3.606 5.25-4.62.873-.464 2.658-.121 3.64-.121h41.402m17.695 0c-.428 1.014-1.582 2.548-2.455 3.217l-2.202-3.217h4.657m1.44 11.176h-3.218c-.418 0-1.033.112-1.424-.051-.781-.328-1.524-1.976-2.012-2.659l-3.796-5.334c-.604-.843-1.459-1.736-1.827-2.709l3.217-.257 1.243-.03.733.88 1.423 2.032 5.66 8.128m16.256-8.382c-.527.988-2.047 1.76-2.963 2.37-2.338 1.56-4.846 2.953-7.45 4.014-.995.403-2.285 1-3.386.888-.607-.063-.903-.89-1.19-1.346-.877-1.381-1.756-2.762-2.625-4.148-.24-.382-1.005-1.22-.83-1.694.157-.421.693-.866 1.004-1.185.419-.43.912-1.16 1.442-1.437.828-.433 2.57.057 3.468.153 2.76.296 5.5.721 8.212 1.32 1.433.316 2.871.852 4.318 1.065m-22.69 8.382h-21.082c-.527 0-1.384.161-1.86-.087-.484-.254-.84-.932-1.17-1.353-.901-1.149-2.219-2.392-2.812-3.725 4.337-2.313 9.602-3.597 14.393-4.555 1.153-.23 2.31-.426 3.471-.616.437-.072 1.09-.281 1.517-.112.815.323 1.598 2.04 2.1 2.743 1.794 2.518 3.938 5.006 5.443 7.705m32.596-4.657c-.503 1.301-2.06 2.234-3.132 3.037-.387.29-.805.743-1.27.895-1.25.406-3.171.047-4.488.047-3.128 0-6.263.085-9.398.085l2.71-1.38 5.25-3.372 1.862-1.528.931-.676 2.201.687 5.334 2.205m-57.912 4.657h-1.016v15.155h12.023c-.276 1.165-1.54 2.408-2.225 3.387-1.733 2.476-3.47 4.951-5.17 7.45-.56.823-1.14 1.629-1.692 2.456-.214.319-.45.815-.827.965-.421.168-1.067.05-1.516.05h-14.732v22.015l-.043 2.455-1.815 2.88-4.372 6.772-2.76 4.318-1.678 2.456c-.756-1.214-1.661-2.339-2.419-3.556a50.32 50.32 0 0 1-4.72-9.737c-4.717-13.257-2.775-28.33 4.827-40.132 4.533-7.037 10.562-12.764 17.552-17.328a52.996 52.996 0 0 1 5.25-3.013c.452-.226 1.427-.96 1.94-.84.391.09.737.732.968 1.03.778 1.006 1.907 2.055 2.425 3.218m81.873 69.088h-.085l-8.045-11.515-2.37-3.387-1.056-1.608-.043-2.286v-20.828h-14.564l-1.52-.051-.964-1.135-1.836-2.624-4.8-6.858-2.48-3.64h12.108V419.65c0-1.419-.351-3.363.027-4.726.096-.345.491-.62.735-.862.709-.704 1.46-1.375 2.201-2.046.265-.24.564-.685.932-.763.387-.082.938.377 1.27.545 1.16.585 2.28 1.264 3.386 1.942 4.666 2.858 9.044 6.333 12.715 10.398 3.92 4.34 7.215 9.168 9.516 14.562 6.323 14.819 4.235 32.055-5.128 45.128m-27.093-67.649v12.277h-11.092c-.262 0-.674-.07-.88.135-.355.355-.136 1.592-.136 2.066v5.842h-30.226v-8.043h-12.107v-12.277h54.44m-10.583 16.256 6.013 8.636 2.115 3.133h-2.878l-1.347-.051-1.313-1.643-3.182-4.572h.508v-3.725l.084-1.778m-33.697 3.98v6.519l-4.318-.085c.563-1.485 1.856-2.912 2.737-4.233.476-.713.918-1.654 1.581-2.202m33.105 3.98c.866 1.124 2.121 2.482 2.624 3.81h-2.709c0-1.079-.331-2.82.085-3.81m-8.128 23.706h.084v-17.272c1.998.934 3.866 2.32 5.758 3.455.628.377 1.899.849 2.283 1.484.3.494.087 1.605.087 2.173v26.332h-6.096c-.692 0-1.877.23-2.512-.051-.475-.21-.8-1.056-1.072-1.473-.883-1.352-1.776-2.697-2.632-4.064-2.138-3.415-4.35-6.796-6.568-10.16-1.092-1.655-2.686-3.484-3.387-5.334h-.085v21.082h-8.89v-25.908l.051-2.438 1.389-.93 3.64-2.031 4.234-2.371 1.509-.712.89 1.116 2.257 3.386 5.955 8.975 3.105 4.741m-26.924-9.99v26.162h-8.975v-19.643c0-.444-.158-1.273.087-1.66.396-.625 1.732-1.023 2.368-1.376 2.087-1.157 4.279-2.668 6.52-3.483m49.36 26.162h-8.974V454.11c.907.287 1.792.904 2.624 1.366 1.32.732 2.666 1.413 3.98 2.154.62.349 1.9.723 2.283 1.338.245.391.087 1.213.087 1.661v19.643m12.446-10.414 7.294 10.414 2.25 3.217.948 1.44-.35.761-1.675 1.863c-1.803-2.922-4-5.673-6-8.467-.75-1.05-2.15-2.398-2.508-3.64-.216-.749-.043-1.763-.043-2.54 0-.878-.255-2.24.084-3.048m-86.529 5.588-.17 14.224 9.737-.085c-.216.91-1.327 1.232-2.116 1.496-2.153.72-4.416 1.058-6.604 1.65-.61.165-2.048.958-2.625.725-.587-.238-1.167-.975-1.609-1.416-.96-.957-1.952-1.87-2.864-2.878-.328-.364-1.133-1-1.14-1.524-.004-.353.342-.73.516-1.016.445-.734.884-1.472 1.336-2.202 1.234-1.991 2.433-4.005 3.643-6.011.562-.931 1.097-2.226 1.896-2.963m86.53 2.54 7.62 10.668v.084c-2.442 2.444-4.83 4.815-7.536 6.977-.687.55-1.4 1.064-2.117 1.575-.224.16-.547.492-.843.482-.284-.01-.49-.371-.647-.567-.47-.587-.92-1.189-1.388-1.778-1.892-2.385-3.995-4.744-5.673-7.281h10.499v-7.112l.084-3.048m-79.248 22.098c.274-.539.918-.869 1.355-1.278.65-.608 1.189-1.346 1.643-2.109.696-1.172 1.09-2.553 1.298-3.895.15-.973.056-2.02.564-2.878.28-.474.626-1.51 1.16-1.727.418-.17 1.07-.051 1.516-.051h54.61c1.31 0 3.05-.305 4.314.027.783.205 1.617 1.808 2.103 2.428 1.461 1.864 2.909 3.738 4.386 5.588.513.642 1.666 1.65 1.856 2.452.09.38-.554.633-.806.793a54.44 54.44 0 0 1-3.048 1.777c-4.414 2.392-9.056 4.339-13.885 5.73-18.932 5.457-40.032 3.188-57.066-6.857m1.863-7.62c.093 2.16-.387 3.787-2.032 5.326-.344.323-1.093 1.175-1.609 1.11-.504-.064-1.109-.655-1.524-.933-1.308-.876-2.5-1.928-3.81-2.794v-.17l5.673-1.331 3.302-1.208m150.876 82.55-2.286.677c-4.315-6.395-8.94-12.605-13.426-18.88a8957.27 8957.27 0 0 1-24.455-34.375 3278.095 3278.095 0 0 0-8.989-12.616l-2.103-2.963c-.228-.32-.724-.775-.44-1.182.244-.35 1.57-1.781 1.992-1.667.36.097.677.783.878 1.071.71 1.015 1.413 2.036 2.129 3.048 2.846 4.023 5.633 8.085 8.48 12.107 8.873 12.542 17.618 25.176 26.428 37.762l8.128 11.6c.81 1.156 1.614 2.317 2.43 3.47.428.606 1.007 1.236 1.234 1.948m-52.917-68.157c4.148 6.097 8.574 12.015 12.834 18.034a9293.833 9293.833 0 0 0 25.485 35.814c2.901 4.059 5.78 8.134 8.683 12.192l2.045 2.879c.253.355.734.821.78 1.27.08.752-.568 1.822-.915 2.455-1.544 2.808-4.51 2.344-6.917 1.004-1.918-1.067-2.956-2.617-4.301-4.306-1.854-2.327-3.662-4.69-5.502-7.027-9.796-12.441-19.522-24.94-29.264-37.423-3.043-3.899-6.104-7.782-9.144-11.684-.924-1.186-1.846-2.375-2.776-3.556-.48-.61-1.118-1.23-1.422-1.947 2.537-1.412 4.935-3.304 7.197-5.114 1.003-.802 2.062-2.052 3.217-2.59m-125.222 1.354c.714.698 1.48 1.345 2.202 2.035.217.208.645.517.667.843.036.524-.903 1.154-1.26 1.44-1.576 1.256-3.242 1.589-5.165 1.947l2.09-3.81 1.466-2.455m-14.816 26.331c2.1-4.072 4.665-8.298 6.7-11.938.68-1.217 1.364-2.43 2.056-3.64.272-.475.516-1.204.94-1.558.447-.372 1.51-.345 2.072-.458a24.73 24.73 0 0 0 4.064-1.207c1.116-.432 2.181-.987 3.218-1.58.434-.249.948-.733 1.44-.84.453-.098 1.075.523 1.438.748 1.12.696 2.205 1.454 3.302 2.185.354.236 1.072.54 1.243.947.219.518-.35 1.491-.591 1.932-.982 1.787-2.623 3.27-4.208 4.516-4.558 3.586-9.808 6.317-15.155 8.523-2.034.84-4.331 2.047-6.52 2.37m128.355-19.05c2.016 3.049 4.573 5.838 6.823 8.72 4.944 6.337 9.943 12.63 14.888 18.966 2.126 2.724 4.654 5.369 6.483 8.297-2.89-.425-5.869-1.73-8.636-2.652-1.567-.523-3.077-1.222-4.74-.67-1.356.448-2.07 1.673-2.382 2.984-.32 1.354-.157 2.693-.251 4.064-.134 1.949-.416 3.884-.416 5.842-1.018-.09-2.07-.576-3.048-.87-1.714-.517-3.44-.986-5.165-1.465-4.644-1.29-9.392-2.238-14.139-3.063-10.879-1.89-21.927-2.631-32.935-2.9-5.237-.13-10.508-.31-15.748-.08-12.724.556-25.268 2.15-37.762 4.737-4.906 1.016-9.764 2.237-14.647 3.357-2.094.481-4.292 1.294-6.435 1.47 0-2.002-.084-4.009-.084-6.012 0-1.198-.138-2.376-.346-3.556-.404-2.293-1.822-4.824-4.48-4.738-1.382.045-2.848.837-4.149 1.266a197.479 197.479 0 0 1-7.197 2.202c-1.25.36-2.595.91-3.894 1.016.546-1.155 1.38-2.239 2.088-3.302.287-.433.544-1.063.975-1.368.698-.494 1.883-.642 2.694-.918a112.875 112.875 0 0 0 5.503-2.066c4.216-1.687 8.467-3.86 11.854-6.923 1.656-1.498 3.128-3.359 3.866-5.49.247-.716.398-1.45.5-2.2.04-.296-.042-.724.124-.984.18-.284.646-.417.928-.576a28.755 28.755 0 0 0 1.948-1.207c1.736-1.17 3.323-2.625 4.727-4.176a40.59 40.59 0 0 0 2.928-3.64c.271-.38.714-1.342 1.165-1.5.263-.09.61.18.832.293.653.329 1.29.695 1.947 1.015a106.473 106.473 0 0 0 8.213 3.594c9.018 3.493 18.716 5.665 28.363 6.326 14.27.978 28.649-.744 42.164-5.554a95.552 95.552 0 0 0 11.769-5.128 76.137 76.137 0 0 0 3.64-2.011c.629-.37 1.321-.933 2.032-1.1m-114.3 15.663c-.398 3.133-2.552 5.315-5.08 7-4.393 2.928-9.574 4.67-14.562 6.293l2.844-4.657 1.671-2.582 1.411-.635 3.048-1.22 7.112-2.844 3.556-1.355m-14.054 43.18c-1.616.13-3.25.685-4.826 1.046-3.278.752-6.539 1.576-9.822 2.306-11.378 2.526-23.096 4.953-34.798 4.441-4.96-.217-10.06-.863-14.562-3.115-1.519-.76-3.463-1.76-4.488-3.154 4.453 0 8.67-.849 12.785-2.575a54.72 54.72 0 0 0 3.895-1.85c.691-.356 1.366-.861 2.116-1.078v-.085c-5.28-1.221-10.816-2.973-15.663-5.397-1.978-.99-4.546-2.416-5.842-4.255 3.126 0 6.265.471 9.398.508 6.621.08 13.233-.41 19.812-1.115 5.108-.547 10.186-1.395 15.24-2.307 2.448-.442 4.978-1.286 7.45-1.488-.864 2.375-2.565 4.64-3.783 6.858-3.232 5.883-6.839 11.698-9.678 17.78 3.05-1.27 6.019-2.904 8.974-4.382.773-.387 2.688-.897 3.13-1.647.282-.477.136-1.311.187-1.845.148-1.554.042-3.21.347-4.742.222-1.111 1.425-2.354 2.035-3.302 1.62-2.515 3.225-5.045 4.885-7.535.595-.894 1.403-2.929 2.455-3.276 4.61-1.519 9.357-2.637 13.97-4.175 1.333-.444 3.85-1.3 4.443.762.338 1.173-1.175 2.502-1.988 3.072-2.702 1.892-5.998 2.167-7.61 5.48-.925 1.899-.402 3.625-.01 5.588.629 3.143 1.537 6.304 1.948 9.482m179.409 6.266c-7.045-1.313-14.025-2.76-20.998-4.413-2.474-.586-5.13-.953-7.535-1.768.798-3.342.87-7.004 1.294-10.414.088-.704.476-1.198.66-1.863.331-1.204-.07-2.5-.673-3.556-1.795-3.137-5.103-3.541-7.716-5.588-.6-.471-2.16-1.864-1.768-2.794.448-1.06 2.16-.965 3.038-.677 3.07 1.008 6.12 2.06 9.229 2.952.935.267 2.224.407 3.047.93.796.506 1.408 1.645 1.984 2.383a833.76 833.76 0 0 0 3.859 4.911c3.387 4.272 6.72 8.586 10.093 12.87 1.821 2.313 3.863 4.571 5.486 7.027m-37.084-27.77c2.016 2.183 4.805 2.697 7.027 4.525a7.356 7.356 0 0 1 1.409 1.57c.247.368.451.765.593 1.185 1.211 3.6-3.67 3.263-5.897 2.914-.46-.072-.906-.185-1.354-.313-.601-.173-2.071-.45-2.453-.967-.225-.3-.087-1.02-.087-1.38 0-1.276.144-2.54.246-3.81.08-.995-.05-2.898.516-3.725m-134.197.593c.401 2.162.593 4.492.593 6.688 0 .507.235 1.839-.136 2.217-.572.584-1.897.669-2.658.797-1.998.334-7.038 1.63-7.028-1.659.001-.32.03-.623.122-.931.888-2.981 3.744-3.594 6.144-4.853 1.156-.607 1.969-1.457 2.963-2.26m142.579 11.092c-.371 4.691-1.148 9.381-1.707 14.055-.214 1.792-.082 4.064-2.188 4.722-1.487.466-3.18.011-4.657-.286-3.129-.63-6.202-1.55-9.313-2.265-9.636-2.211-19.377-3.672-29.21-4.612-7.096-.678-14.213-.942-21.336-1.116-2.624-.064-5.34-.279-7.959-.165-11.202.486-22.452 1.732-33.528 3.59-7.477 1.254-14.912 2.856-22.267 4.693-2.648.661-5.337 1.338-8.043 1.715-1.526.213-3.14.423-4.657.033-2.592-.666-2.839-2.975-3.302-5.209-1.016-4.909-2.094-9.81-3.048-14.732 5.713.048 11.135-1.32 16.68-2.634 5.94-1.408 11.876-2.84 17.864-4.037 9.055-1.811 18.224-3.189 27.432-3.82 6.617-.453 13.255-.463 19.897-.43 14.694.07 29.638 1.363 44.026 4.522 4.335.953 8.632 2.121 12.87 3.439 2.209.685 4.233 1.828 6.519 2.332 1.94.428 3.962.29 5.927.205m-68.919 7.79 3.64.084.255-6.35c.918 0 2.05-.037 2.878.415 1.61.88 2.74 3.046 3.798 4.496.348.478.735 1.288 1.24 1.606.26.162.679.085.974.123 1.085.143 2.292.13 3.386.133-.33-.787-.953-1.499-1.436-2.2-1.166-1.692-2.364-3.91-4.406-4.658 1.315-.445 2.628-.447 3.722-1.454 1.944-1.79 1.38-5.093-.843-6.345-2.183-1.23-5.537-.91-7.959-.921-1.066-.005-2.243.006-3.302-.134-.3-.039-1.05-.174-1.267.1-.187.236-.087.768-.087 1.05-.002.82-.013 1.724-.11 2.54-.442 3.749-.483 7.737-.483 11.514m-20.066.593c.907 0 1.806-.085 2.71-.085.308 0 .861.106 1.1-.135.768-.776.548-2.77 1.533-3.32.325-.183.817-.1 1.176-.1.852 0 1.694-.063 2.54-.084.762-.019 1.524.016 2.286-.002.288-.008.655-.138.923.004 1.029.542.983 2.506 1.84 3.247.26.223.737.055 1.047.051.952-.01 1.94.09 2.879-.085l-1.503-2.963-4.233-8.128-1.44-2.794-.716-1.05-2.776.034-.961.136-.614 1.303-1.17 2.794-3.097 7.366-1.524 3.81m-14.817-11.176 5.334-.508c.327 4.14 1.018 8.449 1.778 12.531l3.641-.423-.954-6.52-.824-6.01 5.25-.509-.34-2.54c-3.533.073-7.246.603-10.752 1.065-.843.111-1.697.143-2.54.254-.24.032-.676-.029-.844.183-.32.405.16 1.986.251 2.477m54.356-3.725-1.608 15.155 3.64.254 1.609-15.155-3.64-.254m8.043.847c-.126 2.93-1.047 5.9-1.45 8.805-.18 1.289-.43 2.925.121 4.149.476 1.056 1.402 1.849 2.43 2.348 2.83 1.377 8.075 1.845 10.3-.824.947-1.135 1.172-2.744 1.451-4.149.558-2.807 1.231-5.783 1.456-8.636l-3.556-.423c-.815 2.408-.957 5.279-1.375 7.79-.184 1.1-.275 2.53-.93 3.47-1.372 1.966-5.726 1.308-6.39-1.016-.301-1.055.131-2.412.307-3.47.416-2.515 1.076-5.08 1.276-7.62l-3.64-.424m112.098 1.778c-1.178 1.673-3.398 2.95-5.164 3.92-3.387 1.86-7.07 2.995-10.753 4.1-1.803.54-3.729 1.358-5.588 1.632v.085c1.973.624 3.835 2.021 5.757 2.842 4.202 1.793 8.482 2.66 13.039 2.66-1.572 2.215-5.046 3.602-7.535 4.431-5.287 1.763-10.98 2.054-16.51 1.919-1.89-.047-3.782-.338-5.673-.338l1.846-3.132.657-1.77 1.307-.467 2.455-.727-2.817-4.064-6.159-8.805-2.792-4.064c8.075 1.026 16.074 2.085 24.214 2.285 3.122.076 6.289.037 9.398-.176 1.43-.098 2.885-.327 4.318-.331m-135.636 2.963.17-3.81c1.583 0 3.165.053 4.741.162.776.053 1.601.066 2.168.7.85.952.292 2.484-.813 2.908-1.069.411-2.446.209-3.556.132-.907-.061-1.805.022-2.71-.092m-49.868-2.927c-1.897.258-3.82.709-5.334 1.95-3.587 2.941-2.921 9.134.508 11.945 2.048 1.679 4.818 2.034 7.366 1.708 1.635-.209 3.293-.695 4.656-1.65 3.776-2.643 3.515-8.597.416-11.696-1.932-1.932-4.956-2.618-7.612-2.257m34.29.387c.743 1.787 2.285 3.686 2.624 5.588l-4.91.085 1.381-3.556.905-2.117m58.504 10.499-3.556-.254c-.378 4.793 4.307 6.52 8.382 6.52 2.102 0 4.378-.544 5.477-2.54.234-.425.397-.879.482-1.355.647-3.592-3.124-4.894-5.79-5.961-.897-.359-2.88-.925-3.01-2.083-.126-1.116 1.474-1.354 2.249-1.354 1.858 0 3.803.676 3.894 2.794.79.1 1.584.188 2.371.303.3.043.787.205 1.074.068.31-.147.2-.771.196-1.049-.014-1.204-.74-2.338-1.693-3.034-2.233-1.63-6.107-2.166-8.721-1.305-1.64.54-3.17 2.158-2.939 4 .418 3.342 4.461 4.112 7.003 5.276.98.449 2.324 1.305 1.469 2.514-1.29 1.823-4.884 1.237-6.193-.255-.567-.647-.695-1.458-.695-2.285m-109.558-7.62 2.794 9.737c-2.434-1.805-4.7-3.882-7.028-5.821-.805-.672-1.947-2.068-2.963-2.347-.902-.248-2.576.4-3.471.632l3.168 10.838.823 2.794.386 1.01.872-.062 2.37-.525-2.793-9.567c2.261 1.969 4.638 3.816 6.942 5.736.767.639 1.984 2.109 2.964 2.33.89.2 2.696-.41 3.556-.7-1.565-4.811-3.188-9.802-4.318-14.732l-3.302.677m17.018-.653c1.385-.17 2.89.11 3.979 1.02 1.95 1.627 2.783 5.59 1.141 7.676-.947 1.204-2.313 1.583-3.766 1.754-4.065.48-7.089-4.975-5.04-8.358.784-1.295 2.23-1.913 3.686-2.092m-14.14 10.39-.084.084z" transform="translate(472.266 -334.096)"/><path style="fill:#dab96b;fill-opacity:1;stroke:#dab96b;stroke-width:.20449;stroke-opacity:1" d="M-326.528 527.95c-25.036-1.04-48.693-11.351-63.464-27.66-8.819-9.736-14.51-20.426-16.807-31.571-2.916-14.143-1.019-28.346 5.525-41.376 2.506-4.988 4.995-8.768 8.643-13.121 2.688-3.209 8.602-9.188 9.857-9.967l1.011-.628 21.687.019c14.134.012 21.438.086 20.972.213-11.573 3.149-19.414 6.885-26.993 12.862-3.019 2.381-7.942 7.393-10.137 10.32-5.424 7.233-8.68 14.789-10.046 23.314-.499 3.117-.49 9.733.018 12.983 2.37 15.174 11.276 28.17 25.38 37.036 14.09 8.858 32.94 12.705 49.99 10.202 11.217-1.646 22.516-6.239 31.216-12.688 12.676-9.395 20.59-22.551 21.946-36.477 1.705-17.528-6.143-34.016-21.764-45.719-6.914-5.18-14.31-8.699-23.825-11.333l-2.556-.708 21.778-.01c20.468-.01 21.811.01 22.325.35.966.636 6.314 5.802 8.409 8.122 8.276 9.165 13.982 20.368 16.289 31.98 2.253 11.348 1.136 23.317-3.2 34.275-3.602 9.101-8.19 15.99-15.601 23.431-6.9 6.926-12.92 11.265-21.985 15.846-15.006 7.583-31.275 11.028-48.668 10.305zm-54.906-130.662v-4.703h118.604v9.406h-118.604zm0-8.793v-2.454h118.604v4.908h-118.604z" transform="translate(472.266 -334.096)"/><path style="fill:red;fill-opacity:1;stroke:none;stroke-width:.263603;stroke-opacity:1" d="M-337.192 438.163v6.068h-27.741l.014 43.878 85.524.02V444.23h-26.81v-6.068z" transform="translate(472.266 -334.096)"/><path style="fill:#fff;fill-opacity:1;stroke:none;stroke-width:.0511223;stroke-opacity:1" d="M-350.08 469.792c-.009-5.757.003-10.542.025-10.634.047-.19.299-.461.614-.662.118-.075.594-.312 1.058-.527a27.447 27.447 0 0 0 1.917-1.021c2.102-1.235 2.565-1.5 3.272-1.87.679-.355 1.863-.89 1.97-.89.032 0 .05 4.623.05 13.035v13.037h-8.892zm35.61 10.437c-.28-.096-.534-.379-.864-.957a52.182 52.182 0 0 0-1.16-1.843 367.04 367.04 0 0 1-2.192-3.415 558.624 558.624 0 0 0-5.785-8.943 77.67 77.67 0 0 0-1.39-2.01c-1.31-1.826-1.817-2.626-2.183-3.452-.106-.24-.217-.444-.246-.454-.037-.012-.053 3.256-.053 10.544v10.56h-8.844v-13.892c0-7.64.015-14.015.033-14.165l.033-.273.691-.462c.38-.254 2.223-1.319 4.095-2.365l3.875-2.168c.258-.146.824-.434 1.256-.64l.785-.375.455.568c.419.523 6.678 9.903 10.216 15.309.855 1.306 1.531 2.29 1.581 2.3.082.015.087-.511.087-8.606v-8.622l.626.328c.793.414 1.566.88 3.264 1.968 1.412.906 1.742 1.102 2.828 1.68.672.36 1.147.729 1.29 1.005.07.135.077 1.679.072 14.266a4511.17 4511.17 0 0 1-.017 14.124c-.006.005-1.869.019-4.14.031-3.217.018-4.168.008-4.313-.041zm13.733-13.029v-13.06l.193.069c.308.109 1 .468 1.826.95.773.45 4.017 2.21 4.73 2.566.21.106.67.33 1.022.497.71.338 1.088.642 1.16.933.022.093.034 4.88.026 10.637l-.014 10.468h-8.942z" transform="translate(472.266 -334.096)"/><path style="font-variation-settings:normal;opacity:1;vector-effect:none;fill:#fff;fill-opacity:1;stroke:none;stroke-width:1.08896;stroke-linecap:butt;stroke-linejoin:miter;stroke-miterlimit:4;stroke-dasharray:none;stroke-dashoffset:0;stroke-opacity:1;-inkscape-stroke:none;stop-color:#000;stop-opacity:1" d="M-1273.901 1634.048v-15.302h-45.907v-44.814h204.393v44.769l-22.68.296-22.68.295-.304 15.029-.304 15.029h-112.518zm-125.939 219.968-10.584-10.657 13.153-21.858c7.235-12.022 13.426-22.105 13.76-22.407.332-.302.325 11.455-.018 26.125l-.622 26.673 18.605-.668c15.893-.571 18.418-.445 17.331.865-1.532 1.847-8.215 4.114-20.987 7.12-5.224 1.23-11.557 2.962-14.073 3.85-2.516.887-4.89 1.613-5.277 1.613-.387 0-5.466-4.795-11.288-10.656zm-58.843 81c7.366-13.794 6.735-13.363 12.57-8.581 2.74 2.245 4.981 4.701 4.981 5.46 0 3.03-10.44 9.21-18.447 10.92l-3.69.789zm87.116-56.656c-7.067-5.208-8.98-7.12-7.545-7.54 1.057-.308 6.21-1.56 11.453-2.78 5.242-1.22 11.328-2.969 13.523-3.886 5.566-2.326 5.853-2.19 5.14 2.431-.8 5.189-3.058 9.803-6.732 13.757-5.223 5.619-5.588 5.573-15.839-1.982zm-129.63 132.127c2.62-4.753 10.69-18.97 17.932-31.595 13.039-22.727 13.212-22.963 17.54-23.893 10.91-2.346 20.297-5.577 27.683-9.53 4.405-2.357 8.585-4.264 9.29-4.237.706.027 5.71 3.119 11.12 6.87 11.181 7.753 11.235 7.92 5.385 16.845-5.97 9.108-24.394 22.877-45.755 34.195-12.026 6.372-39.48 18.29-44.395 19.273l-3.564.713zm-23.958 43.183c.944-1.452 4.47-7.098 7.835-12.548 3.963-6.419 7.197-10.402 9.183-11.31 9.05-4.142 52.047-20.883 52.492-20.438 1.07 1.07-2.121 8.319-5.76 13.083-4.356 5.706-18.498 15.47-30.132 20.805-8.792 4.03-26.902 10.935-32.087 12.233-3.225.807-3.236.793-1.531-1.826zm-80.91 130.434 21.203-10.657 1.223-13.662 1.223-13.663 13.533-20.492c7.442-11.27 14.838-22.662 16.435-25.315 2.723-4.523 3.47-4.992 12.023-7.55 37.073-11.09 54.182-16.049 55.377-16.049 2.588 0 6.65 5.077 6.013 7.515-.958 3.665-8.241 9.48-17.377 13.874-9.637 4.635-16.518 10.336-18.665 15.465-2.335 5.579-1.747 13.997 2.241 32.097 5.876 26.666 5.8 24.645.954 25.373-2.266.34-15.433 3.315-29.26 6.611-37.365 8.907-77.62 17.11-83.969 17.11-1.186 0 7.384-4.796 19.046-10.657zm184.854-756.362c-38.995-49.663-51.714-66.122-51.365-66.47.195-.196 2.309.098 4.696.65 6.632 1.538 18.992 1.25 26.246-.613 14.314-3.676 29.05-13.761 38.066-26.051 2.926-3.99 5.631-7.242 6.012-7.228.6.022 75.387 104.764 85.155 119.263l3.581 5.315h-92.867z" transform="translate(472.266 -334.096) scale(.26458)"/><path style="font-variation-settings:normal;opacity:1;vector-effect:none;fill:#fff;fill-opacity:1;stroke:none;stroke-width:1.08896;stroke-linecap:butt;stroke-linejoin:miter;stroke-miterlimit:4;stroke-dasharray:none;stroke-dashoffset:0;stroke-opacity:1;-inkscape-stroke:none;stop-color:#000;stop-opacity:1" d="M-1300.322 1452.572c-1.005-.589-2.948-2.912-4.317-5.162-1.369-2.25-20.52-29.423-42.557-60.382-22.037-30.96-42.965-60.56-46.508-65.777-7.888-11.62-10.611-13.438-20.16-13.454-10.3-.017-20.917 5.375-30.86 15.675-4.036 4.18-7.338 8.033-7.338 8.562 0 .53 3.197 5.3 7.105 10.602 3.907 5.302 7.104 10.063 7.104 10.579s-2.032 1.486-4.516 2.154c-11.909 3.207-39.794-1.031-42.716-6.492-4.618-8.63 1.276-23.312 14.731-36.696 17.232-17.141 37.086-25.511 57.917-24.418 10.97.576 16.489 2.983 20.849 9.092 1.716 2.404 25.105 35.85 51.975 74.324s50.726 72.535 53.014 75.69l4.159 5.74h-6.572c-3.614 0-7.226.232-8.026.516-.801.285-2.279.036-3.284-.553zm165.232-3.3c0-1.392 14.229-19.255 27.649-34.713 42.284-48.704 96.821-98.5 135.975-124.154 14.635-9.589 34.555-19.121 41.736-19.971 3.075-.365 5.591-.305 5.591.133 0 .437-3.003 4.071-6.675 8.076-3.67 4.005-7.838 9.756-9.26 12.78-2.872 6.106-4.767 17.032-4.83 27.838-.054 9.574-2.62 21.087-5.975 26.812-5.825 9.939-18.55 18.237-39.085 25.485-39.788 14.043-81.073 37.122-122.99 68.754-11.703 8.83-13.952 10.11-17.767 10.11-2.403 0-4.368-.518-4.368-1.15z" transform="translate(472.266 -334.096) scale(.26458)"/><path style="font-variation-settings:normal;opacity:1;vector-effect:none;fill:#fff;fill-opacity:1;stroke:none;stroke-width:1.08896;stroke-linecap:butt;stroke-linejoin:miter;stroke-miterlimit:4;stroke-dasharray:none;stroke-dashoffset:0;stroke-opacity:1;-inkscape-stroke:none;stop-color:#000;stop-opacity:1" d="M-1110.497 1446.498c5.373-4.788 25.746-18.625 40.442-27.468 21.798-13.116 53.882-28.213 81.975-38.573 8.417-3.104 19.852-8.053 25.413-10.999l10.11-5.355-.024 5.724c-.043 10.182-6.73 20.967-17.655 28.47-3.974 2.73-11.54 5.866-23.855 9.89-29.776 9.727-50.278 19.34-72.936 34.197-4.947 3.244-10.357 6.11-12.023 6.37-1.666.26-10.406.736-19.424 1.057l-16.395.583zm63.974 2.877-15.816-.592 11.444-7.472c12.606-8.23 24.074-13.98 38.223-19.165l24.025-8.808c8.104-2.971 14.793-5.311 14.864-5.2.805 1.262-2.613 8.006-6.017 11.874-8.996 10.22-45.551 32.124-50.36 30.177-.301-.122-7.664-.488-16.363-.814zm-150.099 107.889c-2.018-3.156-5.77-9.063-8.335-13.126l-4.666-7.388 3.568-4.089c6.403-7.337 5.744-7.208 23.695-4.65 17.28 2.464 40.713 7.553 40.713 8.842 0 1.202-19.194 13.336-28.419 17.967-8.303 4.168-18.828 8.182-21.45 8.182-.79 0-3.087-2.582-5.106-5.738zm32.984 4.574c7.45-4.138 20.684-12.87 26.824-17.7 6.278-4.938 5.985-4.959 22.164 1.577 10.369 4.189 11.048 4.648 9.71 6.559-1.41 2.013-13.35 11.707-14.705 11.94-.379.064-11.568.187-24.865.272l-24.176.156zm-155.505-3.306c-3.972-4.863-7.223-9.224-7.223-9.69 0-1.425 14.68-7.512 26.518-10.996 16.273-4.789 43.367-9.933 45.71-8.68 1.046.56 3.024 2.869 4.397 5.13 1.372 2.263 6.263 9.278 10.868 15.59 4.605 6.312 9.239 12.83 10.298 14.482l1.924 3.006h-85.268zm98.749 6.383c-3.1-3.682-25.265-35.04-25.882-36.616-.382-.978.976-1.37 4.775-1.381 2.92-.01 6.335-.29 7.59-.628 1.946-.522 4.273 2.235 15.848 18.78 7.462 10.667 13.961 20.049 14.442 20.849.695 1.157-.72 1.455-6.914 1.455-6.735 0-8.068-.333-9.859-2.46zm82.599 113.145c-2.427-.615-2.646-.866-10.964-12.553l-6.004-8.436v-9.261c0-5.094.374-9.492.83-9.775.67-.413 27.19 36.753 28.499 39.94.387.942-8.731 1.005-12.36.085zm-159.059-5.484c0-.45 3.197-5.455 7.104-11.12l7.105-10.3v22.24h-7.105c-3.908 0-7.104-.369-7.104-.82zm487.191 524.194c-5.995-1.295-12.175-4.726-16.46-9.138-3.712-3.822-44.092-55.154-136.262-173.217-26.046-33.364-48.754-62.373-50.462-64.464-1.707-2.09-3.104-4.168-3.104-4.617 0-.449 1.352-1.516 3.005-2.371 3.972-2.055 21.292-15.102 27.99-21.084 2.92-2.608 5.683-4.742 6.14-4.742.805 0 21.17 28.383 131.754 183.625 29.333 41.18 54.303 76.184 55.488 77.789 2.152 2.912 2.151 2.927-.18 7.743-4.26 8.8-10.035 12.178-17.909 10.476zm19.837-26.828c-1.967-2.881-29.722-41.882-61.68-86.668-31.956-44.786-72.427-101.584-89.934-126.218l-31.83-44.79 3.468-3.578c1.908-1.968 3.825-3.209 4.26-2.757.435.452 42.606 60.58 93.712 133.619 59.412 84.907 92.454 133.045 91.625 133.488-4.828 2.576-6.008 2.196-9.62-3.096zm-238.72-335.601c-2.288-3.456-9.244-13.094-15.457-21.416l-11.297-15.132v-9.953c0-5.506.413-9.489.924-8.914 2.223 2.5 36.304 51.855 36.926 53.474.639 1.667-4.306 8.226-6.202 8.226-.404 0-2.606-2.828-4.894-6.285zm-49.707 32.285c-6.312-7.902-12.6-16-13.975-17.997l-2.499-3.63h39.374l.3-17.928.3-17.927 12.947 18.109c7.12 9.96 13.158 18.66 13.416 19.332.554 1.443-18.518 19.406-30.028 28.284-4.42 3.41-8.11 6.182-8.198 6.161-.088-.02-5.325-6.502-11.637-14.404z" transform="translate(472.266 -334.096) scale(.26458)"/><path style="font-variation-settings:normal;opacity:1;vector-effect:none;fill:#fff;fill-opacity:1;stroke:none;stroke-width:1.08896;stroke-linecap:butt;stroke-linejoin:miter;stroke-miterlimit:4;stroke-dasharray:none;stroke-dashoffset:0;stroke-opacity:1;-inkscape-stroke:none;stop-color:#000;stop-opacity:1" d="m-783.856 2199.495-7.82-.453 4.541-9.152 4.54-9.152 6.832-1.895c3.757-1.042 6.832-2.22 6.832-2.618 0-.398-9.763-14.711-21.695-31.808-11.931-17.097-21.645-31.156-21.586-31.244.058-.087 9.698.992 21.42 2.397 11.723 1.406 27.954 3.173 36.07 3.927 16.703 1.553 60.38 1.921 74.218.627 8.444-.79 9.064-.715 7.695.934-2.54 3.06-13.713 10.177-23.157 14.75-9.252 4.48-50.482 18.512-54.393 18.512-4.218 0-1.916 1.701 10.733 7.934 18.691 9.21 30.523 12.657 49.763 14.499l7.477.715-2.38 2.533c-5.909 6.29-26.998 14.515-44.847 17.492-10.481 1.747-39.907 2.834-54.243 2.002zm-65.958-9.685c-20.706-4.12-81.92-17.63-84.677-18.688-1.249-.48-1.645-1.456-1.225-3.017.342-1.27 1.406-9.932 2.363-19.25.958-9.318 2.439-18.796 3.292-21.063 2.226-5.917 1.934-9.436-1.33-15.985-3.244-6.51-7.56-10.057-20.314-16.698-7.613-3.964-16.154-11.337-16.154-13.946 0-1.829 3.39-4.447 5.758-4.447 1.277 0 9.972 2.419 19.322 5.375s20.561 6.418 24.912 7.694c6.117 1.792 8.532 3.114 10.646 5.828 8.898 11.424 59.889 76.382 67.353 85.803 4.901 6.185 8.727 11.412 8.5 11.615-.226.203-8.527-1.246-18.446-3.22z" transform="translate(472.266 -334.096) scale(.26458)"/><path style="font-variation-settings:normal;opacity:1;vector-effect:none;fill:#fff;fill-opacity:1;stroke:none;stroke-width:1.08896;stroke-linecap:butt;stroke-linejoin:miter;stroke-miterlimit:4;stroke-dasharray:none;stroke-dashoffset:0;stroke-opacity:1;-inkscape-stroke:none;stop-color:#000;stop-opacity:1" d="M-1485.136 2209.594c-5.4-1.927-6.679-3.087-8.82-7.995-1.597-3.662-13.85-60.319-13.85-64.042 0-1.097 2.553-1.69 9.565-2.224 14.187-1.081 25.558-3.262 64.214-12.32 58.633-13.738 92.842-20.044 132.637-24.449 52.635-5.826 129.547-5.567 189.8.64 47.209 4.862 100.754 16.03 131.524 27.43 16.263 6.024 24.024 7.88 33.247 7.948 6.649.05 8.471.405 8.471 1.65 0 .874-1.709 14.96-3.798 31.302-3.879 30.344-4.712 33.506-9.508 36.073-3.454 1.848-13.43.624-31.063-3.812-73.78-18.56-145.69-26.99-232.162-27.21-61.845-.159-135.257 9.999-222.507 30.786-20.496 4.883-36.646 7.872-41.807 7.737-1.008-.026-3.683-.708-5.943-1.514zm33.463-14.989c5.225-1.05 6.118-1.563 5.593-3.218-3.522-11.096-9.077-31.057-8.738-31.397.451-.45 15.416 11.756 25.638 20.913 3.267 2.927 7.09 5.759 8.497 6.294 3.136 1.192 13.36-.808 14.11-2.76.288-.753-1.886-9.19-4.832-18.749-2.946-9.559-6.497-21.807-7.891-27.217-1.394-5.41-2.615-9.96-2.712-10.11-.169-.26-12.823 2.04-13.372 2.43-.142.101 1.917 7.762 4.577 17.025 2.66 9.263 4.637 17.041 4.394 17.285-.452.452-13.736-10.49-26.614-21.921-5.753-5.106-7.884-6.348-10.893-6.348-5.596 0-12.383 2.296-11.74 3.973.774 2.015 15.943 53.897 15.943 54.526 0 .763 1.134.661 8.04-.726zm462.66-13.038c6.02-2.914 9.36-8.244 9.464-15.101.136-9.012-5.039-13.82-21.9-20.346-9.122-3.531-12.286-6.262-10.518-9.08 1.467-2.336 11.768-3.015 15.69-1.033 1.503.76 3.47 2.956 4.372 4.881 1.639 3.499 2.13 3.727 11.217 5.213 4.872.796 5.82-.59 4.653-6.808-1.027-5.473-7.295-11.315-14.708-13.71-7.04-2.273-21.628-2.48-26.66-.377-5.779 2.415-9.478 7.666-9.478 13.453 0 8.972 4.067 13.003 19.658 19.48 12.87 5.347 15.37 8.025 11.096 11.893-5.778 5.229-18.08 3.596-22.057-2.927-1.172-1.922-2.133-4.291-2.135-5.265 0-1.789-4.725-3.11-11.208-3.136-2.714-.011-3.006.362-3.006 3.848 0 8.629 5.846 15.64 16.108 19.32 7.793 2.796 23.34 2.635 29.413-.305zm-360.588-6.404c6.665-2.936 12.517-8.934 14.599-14.962.805-2.333 1.42-7.589 1.367-11.68-.182-13.965-8.5-24.842-21.998-28.766-8.598-2.5-21.116-1.468-29.874 2.462-10.917 4.9-15.357 12.197-15.343 25.217.017 14.669 7.69 25.661 20.92 29.97 1.506.49 7.658.754 13.67.587 8.564-.24 12.17-.851 16.659-2.828zm292.762-3.31c7.276-3.181 9.03-6.806 13.145-27.186 2.024-10.02 3.684-20.054 3.688-22.297.01-4.437-.204-4.563-9.455-5.574-4.542-.496-4.546-.493-5.659 4.031-.612 2.49-1.918 10.184-2.902 17.097-2.406 16.91-3.392 20.26-6.742 22.895-4.78 3.76-14.094 2.733-18.91-2.084-2.886-2.885-2.83-6.166.4-23.577 4.231-22.805 4.206-22.373 1.28-22.373-1.382 0-4.697-.3-7.368-.665l-4.857-.666-1.313 8.043c-.722 4.424-2.319 13.7-3.548 20.614-2.562 14.401-2.142 20.374 1.759 25.01 7.377 8.767 27.986 12.194 40.482 6.732zm-232.646-4.864c.351-.351-.709-10.354-2.355-22.23-1.646-11.874-3.079-22.328-3.184-23.23-.107-.917.772-1.734 1.995-1.854 1.202-.118 5.506-.526 9.564-.907l7.378-.692-.017-4.011c-.027-6.585-.836-7.092-9.962-6.25-12.438 1.148-45.17 5.15-45.624 5.58-.222.21-.065 2.65.351 5.42l.756 5.038 6.207-.67c3.414-.37 7.96-.92 10.102-1.224l3.895-.553 1.342 11.812c1.385 12.183 4.158 29.923 5.244 33.54.542 1.802 1.414 1.98 7.143 1.461 3.59-.325 6.813-.879 7.164-1.23zm173.464-3.105c.323-1.954 1.585-13.39 2.806-25.413 1.22-12.023 2.47-23.418 2.775-25.322l.555-3.462-7.187-.77c-3.952-.423-7.367-.586-7.588-.363-.221.223-1.744 13.122-3.384 28.664-3.372 31.95-3.71 30.173 5.748 30.201 5.574.016 5.7-.055 6.275-3.535zm-140.967-4.015c.983-2.96 2.392-5.882 3.13-6.495.738-.613 6.982-1.227 13.876-1.365l12.533-.251 3.047 6.2 3.046 6.199h8.157c4.486 0 8.157-.295 8.157-.654 0-.665-26.681-51.865-28.85-55.363-.92-1.481-2.668-1.909-7.755-1.896-3.613.01-7.17.399-7.905.866-1.273.809-24.35 54.924-24.35 57.1 0 .572 3.404 1.04 7.564 1.04h7.563zm119.606 2.995c-3.837-7.17-13.417-19.374-17.147-21.847l-2.755-1.825 4.582-1.234c15.531-4.182 17.125-23.28 2.492-29.854-4.428-1.99-7.77-2.353-25.368-2.757l-20.269-.466-1.334 17.888c-.734 9.838-1.328 22.877-1.319 28.974.018 12.521-.057 12.414 8.733 12.414 6.45 0 6.585-.282 6.585-13.752v-10.294h4.334c5.375 0 10.032 3.81 17.243 14.109 8.153 11.644 7.213 11.03 16.887 11.03 8.515 0 8.598-.027 7.336-2.386zm174.032-36.87c-3.832-1.124-7.333-2.635-7.779-3.356-.446-.722-.64-3.357-.43-5.856.21-2.499.682-9.339 1.05-15.2.367-5.861.96-10.657 1.315-10.657.356 0 1.663.934 2.904 2.075 1.241 1.14 6.437 4.368 11.547 7.17 16.988 9.32 23.902 19.38 17.377 25.286-3.302 2.988-16.69 3.265-25.984.538zm-541.078 3.349c-1.448-.419-3.59-2.043-4.76-3.61-4.782-6.404 1.291-15.127 15.129-21.731 5.057-2.414 10.88-5.869 12.94-7.677 2.35-2.063 4.015-2.849 4.47-2.11.4.647 1.003 7.74 1.34 15.761.706 16.848 1.258 15.917-10.636 17.93-11.284 1.911-15.66 2.251-18.483 1.437zm-198.684 69.825c-11.138-1-25.292-3.656-33.007-6.191-8.023-2.637-22.545-10.077-25.215-12.919l-2.444-2.602 6.39-.687c12.15-1.305 20.287-2.885 29.168-5.662 9.144-2.86 33.51-14.24 33.51-15.652 0-.433-2.828-1.405-6.284-2.16-12.121-2.645-39.194-12.302-51.46-18.355-7.503-3.702-14.396-8.01-17.488-10.927l-5.104-4.817 7.94.63c30.878 2.446 60.527 1.631 100.815-2.772 22.498-2.46 53.291-7.413 71.187-11.453 6.463-1.46 12.305-2.653 12.982-2.653 1.39 0-1.764 6.014-16.335 31.151-12.096 20.866-29.736 53.24-31.699 58.176-1.061 2.668-2.236 3.665-4.833 4.1-16.845 2.815-51.882 4.252-68.123 2.793z" transform="translate(472.266 -334.096) scale(.26458)"/><path style="font-variation-settings:normal;opacity:1;vector-effect:none;fill:#fff;fill-opacity:1;stroke:none;stroke-width:1.08896;stroke-linecap:butt;stroke-linejoin:miter;stroke-miterlimit:4;stroke-dasharray:none;stroke-dashoffset:0;stroke-opacity:1;-inkscape-stroke:none;stop-color:#000;stop-opacity:1" d="M-1375.051 2165.4c-10.322-6.294-14.422-20.245-8.389-28.543 2.697-3.71 10.742-7.682 15.498-7.652 9.667.06 16.482 6.452 18.834 17.666 1.685 8.034-1.259 15.01-7.726 18.31-5.616 2.865-13.719 2.962-18.217.219zm128.131-31.028c1.53-3.757 3.241-8.036 3.804-9.508.987-2.582 1.142-2.469 4.394 3.225 1.854 3.247 4.049 7.525 4.878 9.509l1.506 3.606h-17.364zm65.56-4.827c-.4-.401-.729-3.598-.729-7.105v-6.376l5.739.092c9.774.158 18.417 1.6 19.493 3.254 1.882 2.891.656 7.98-2.278 9.456-2.839 1.428-20.923 1.98-22.225.679z" transform="translate(472.266 -334.096) scale(.26458)"/><path style="font-variation-settings:normal;opacity:1;vector-effect:none;fill:#fff;fill-opacity:1;stroke:none;stroke-width:.385005;stroke-linecap:butt;stroke-linejoin:miter;stroke-miterlimit:4;stroke-dasharray:none;stroke-dashoffset:0;stroke-opacity:1;-inkscape-stroke:none;stop-color:#000;stop-opacity:1" d="M-1433.366 1348.568c-.874-1.328-3.55-5.024-5.945-8.212-5.204-6.925-5.527-7.493-5.02-8.825.82-2.156 7.983-8.703 13.293-12.149 9.086-5.895 18.331-7.347 25.028-3.93 2.301 1.174 3.295 3.548 2.708 6.471-1.196 5.954-7.593 14.122-17.058 21.782-3.687 2.983-10.165 7.278-10.98 7.278-.24 0-1.153-1.087-2.026-2.415z" transform="translate(472.266 -334.096) scale(.26458)"/></svg>