<svg width="199.43" height="169.39" viewBox="0 0 52.766 44.818" xml:space="preserve" xmlns="http://www.w3.org/2000/svg"><path style="fill:#000;stroke:none;stroke-width:.015035" d="M95.624 196.907H93.91v2.901c0 .08.022.199-.015.27-.082.157-.333.298-.466.413-.297.258-.587.533-.855.82-.901.968-1.691 2.04-2.268 3.233-1.245 2.574-1.516 5.562-.665 8.3a12.153 12.153 0 0 0 1.352 2.901c.431.68.932 1.327 1.488 1.91.186.194.366.43.587.586v.015c-.175.17-.29.454-.418.662-.282.46-.564.92-.842 1.383-.88 1.468-1.767 2.933-2.614 4.42-.324.568-.65 1.133-.976 1.7l-.264.465c-.036.064-.07.155-.134.194-.135.08-.357.085-.51.12-.453.104-.912.181-1.368.267-1.794.335-3.635.532-5.458.532-.615 0-1.221-.033-1.834-.075-.195-.013-.514-.14-.595.105-.029.086.075.17.129.225.175.18.356.345.556.495.6.449 1.31.709 2.015.939.277.09.597.135.857.265-.902.376-1.767.732-2.767.663-.158-.01-.326.005-.48-.031.116.275.442.536.676.712.77.58 1.733.805 2.676.9 2.265.226 4.579-.257 6.78-.746.589-.131 1.174-.274 1.76-.413.293-.07.602-.173.902-.198.01.224.085.458.132.677.07.329.084.696.335.947.307.308.765.317 1.172.273.873-.093 1.731-.357 2.586-.553 2.893-.664 5.846-1.108 8.81-1.238.893-.039 1.8.02 2.691.06 1.9.082 3.79.244 5.669.555 1.145.19 2.272.462 3.398.743.448.113 1.085.315 1.503.022.316-.222.307-.584.348-.93.02-.173.056-.35.058-.525.832.161 1.654.387 2.48.576a42.23 42.23 0 0 0 2.978.573c.226.035.449.097.676.124.12.014.24-.005.361.007.894.09 1.78.125 2.676.06.958-.071 1.964-.302 2.752-.877.258-.188.572-.446.721-.734-.281 0-.56.042-.842.03a5.41 5.41 0 0 1-1.653-.345c-.225-.084-.582-.175-.752-.347.268-.039.537-.152.797-.23.728-.218 1.458-.501 2.074-.955a4.17 4.17 0 0 0 .557-.498c.07-.074.169-.148.113-.256-.094-.183-.3-.1-.474-.08-.42.05-.856.08-1.278.08-1.407 0-2.799-.054-4.195-.236-.34-.045-.683-.088-1.022-.144-.115-.018-.298-.01-.38-.103-.206-.235-.37-.524-.548-.78l-1.053-1.503-3.367-4.812c-.425-.606-.846-1.215-1.274-1.819l-.337-.481c-.038-.053-.13-.144-.13-.21-.003-.08.137-.174.188-.226.181-.186.35-.387.517-.586a14.168 14.168 0 0 0 1.568-2.346c1.176-2.173 1.509-4.77 1.101-7.187-.342-2.023-1.296-3.923-2.591-5.502a11.467 11.467 0 0 0-1.257-1.334c-.165-.146-.326-.298-.496-.44-.07-.057-.196-.128-.231-.214-.032-.077-.01-.2-.01-.283v-.661c0-.743-.014-1.483-.014-2.225h-1.158c.167-.15.408-.234.601-.35.43-.255.844-.53 1.187-.898.176-.19.326-.417.411-.662.04-.112.032-.273.087-.374.055-.104.215-.175.3-.257.196-.192.36-.407.466-.662.118-.285.188-.608.195-.917.004-.177-.042-.399-.009-.57.015-.08.123-.156.165-.227.079-.13.115-.286.138-.436.081-.52-.035-1.062.059-1.578.104-.577.534-1.01.856-1.474.06-.087.29-.412.153-.51-.053-.04-.156-.034-.22-.042a2.366 2.366 0 0 0-.706.04c-.882.173-1.723.623-2.45 1.141-2.19 1.56-4.034 3.508-5.817 5.505-.49.55-.972 1.113-1.436 1.684-.119.146-.24.291-.36.436-.052.065-.101.142-.19.15-.464.04-.949 0-1.414 0h-3.939c-.11 0-.326.042-.419-.023-.168-.12-.301-.408-.418-.578-.284-.413-.577-.82-.862-1.233-.962-1.388-1.938-2.766-2.906-4.15-.312-.445-.622-.893-.937-1.337-.144-.205-.266-.468-.502-.574-1.3-.578-2.905.17-3.834 1.1-.428.427-.855 1.059-.743 1.699.06.343.257.574.466.842.215.276.433.551.65.827.895 1.138 1.746 2.333 2.694 3.428m12.87-.166c.07-.141.19-.266.287-.39.213-.276.433-.545.656-.813a37.58 37.58 0 0 1 2.304-2.51 37.401 37.401 0 0 1 2.481-2.284c.94-.785 1.938-1.568 3.037-2.118.289-.144.581-.292.902-.346.093-.015.224-.055.315-.018.115.046.004.171-.045.225-.18.195-.387.367-.54.586-.64.922-.02 2.18-.8 3.053-.61.682-1.54.878-2.358 1.205-1.089.436-2.132.993-3.127 1.612a27.246 27.246 0 0 0-2.39 1.684c-.067.052-.144.142-.226.164-.12.033-.377-.015-.496-.05m-6.796.166h-.616c-.077 0-.2.023-.268-.016-.147-.083-.272-.359-.37-.496l-.868-1.217c-.805-1.126-1.614-2.25-2.408-3.383-.25-.358-.505-.712-.758-1.068-.102-.142-.2-.366-.335-.473-.596-.472-1.49.014-1.94.458-.11.11-.216.223-.312.346-.032.04-.088.095-.09.15-.004.089.13.217.179.286.17.236.367.468.51.722-.437.23-1.054.205-1.52.1a3.604 3.604 0 0 1-.45-.131c-.083-.03-.143-.073-.211 0-.466-.461-.047-1.269.28-1.668.753-.92 2.187-1.68 3.404-1.4.138.032.32.073.434.161.195.152.343.465.483.667.244.353.493.7.737 1.053.944 1.363 1.901 2.716 2.852 4.074.284.406.566.814.852 1.218.135.19.332.399.415.617m-7.051-4.797c-.135-.218-.3-.422-.45-.631-.047-.067-.157-.172-.166-.256-.015-.13.273-.343.36-.42.274-.242.634-.455 1.007-.48a.978.978 0 0 1 .24.01c.1.02.224.049.296.127.189.208-.076.599-.205.763a2.94 2.94 0 0 1-.406.415c-.203.174-.432.358-.676.473m1.608-1.188 2.908 4.09.911 1.277.421.617h-4.044l-.389-.01-.275-.321-.634-.812-1.764-2.255-.53-.677-.242-.33c.275.056.544.128.827.135.83.02 1.554-.348 2.15-.904.162-.151.306-.33.438-.51.072-.098.13-.221.223-.3m20.899 1.759c.249.778-.513 1.565-1.158 1.86-.262.12-.554.169-.827.26-.545.181-1.085.385-1.608.62a12.88 12.88 0 0 0-1.489.8c-.262.162-.573.43-.872.512-.18.049-.415.003-.601.008-.375.009-.752.03-1.128.03.131-.182.363-.323.541-.457.416-.312.853-.591 1.293-.867 1.03-.645 2.144-1.192 3.263-1.662.405-.17.825-.3 1.233-.46.284-.112.571-.227.842-.37.164-.087.333-.221.51-.274m-.961 2.045c-.004.517-.524.881-.902 1.15-.306.216-.635.395-.963.577-.166.092-.357.23-.54.28-.192.052-.45.008-.647.008-.41 0-.822.015-1.233.015.158-.192.442-.334.646-.477.783-.548 1.673-.868 2.571-1.167.244-.08.482-.174.722-.264.112-.043.225-.11.346-.122m-.917 2.436v.872h-21.11v-.872h21.11m-.015 1.128v1.729H94.166v-1.73h21.094m-13.2 1.985v.015c-.31.026-.635.135-.933.22-.687.195-1.354.44-2 .746-3.111 1.47-5.514 4.31-5.846 7.8a7.968 7.968 0 0 0 .08 1.954c.118.763.352 1.51.674 2.21 1.903 4.145 6.546 6.2 10.91 6.18 4.347-.021 8.913-2.416 10.615-6.555.27-.655.46-1.357.544-2.06a8.697 8.697 0 0 0-.021-2.316c-.466-3.162-2.785-5.72-5.574-7.115a12.42 12.42 0 0 0-2.15-.83c-.318-.09-.662-.207-.992-.234.09-.037.219-.015.315-.015h7.292c.112 0 .289-.033.391.016.218.103.423.347.602.508.476.429.919.893 1.329 1.386 1.926 2.314 2.985 5.33 2.697 8.344-.079.827-.246 1.645-.503 2.436-1.534 4.704-5.965 7.855-10.635 8.963-5.88 1.393-12.866-.266-16.767-5.1-.806-.997-1.488-2.105-1.945-3.307-1.323-3.477-.805-7.323 1.281-10.389.499-.732 1.08-1.39 1.704-2.015.27-.27.594-.64.933-.82.155-.082.472-.022.646-.022h7.352m3.143 0c-.077.18-.281.453-.436.572l-.391-.572h.827m.255 1.985h-.571c-.075 0-.184.02-.253-.009-.139-.058-.27-.35-.357-.472l-.674-.947c-.108-.15-.26-.309-.325-.481l.571-.046.221-.005.13.156.253.361 1.005 1.443m2.887-1.488c-.094.175-.364.313-.526.42a7.53 7.53 0 0 1-1.323.714c-.177.071-.406.177-.602.157-.107-.01-.16-.158-.211-.239-.156-.245-.312-.49-.466-.736-.043-.068-.179-.217-.147-.301.027-.075.123-.154.178-.21.074-.077.162-.206.256-.256.147-.077.456.01.616.028.49.052.976.128 1.458.234.254.056.51.151.767.189m-4.03 1.488H100.571c-.094 0-.246.03-.33-.015-.086-.045-.15-.165-.208-.24-.16-.204-.394-.425-.5-.662.77-.41 1.705-.638 2.556-.809.205-.04.41-.075.617-.109.077-.013.193-.05.269-.02.145.057.284.362.373.487.318.447.7.89.966 1.368m5.789-.827c-.09.232-.366.397-.556.54-.07.051-.143.132-.226.159-.222.072-.563.008-.797.008-.555 0-1.112.015-1.669.015l.481-.246.933-.598.33-.271.166-.12.39.121.948.392m-10.284.827h-.18v2.691h2.135c-.05.207-.274.428-.396.602-.307.44-.616.879-.918 1.323-.099.146-.202.289-.3.436-.038.056-.085.131-.152.158-.075.03-.184.022-.264.022h-2.617v3.909l-.007.436-.322.511-.777 1.203-.49.767-.298.436c-.134-.216-.295-.415-.43-.632a8.936 8.936 0 0 1-.837-1.729c-.838-2.354-.493-5.03.857-7.126.805-1.25 1.875-2.267 3.117-3.077.299-.195.612-.375.932-.535.08-.04.253-.17.344-.15.07.017.131.13.172.184.138.178.339.364.431.57m14.539 12.27h-.015l-1.429-2.045-.42-.602-.188-.285-.008-.406v-3.699h-2.586l-.27-.009-.171-.201-.326-.466-.853-1.218-.44-.647h2.15v-1.819c0-.252-.063-.597.005-.84.017-.06.087-.11.13-.152.126-.125.26-.245.391-.364.047-.042.1-.121.166-.135.068-.015.166.067.225.096.206.104.405.225.602.345a10.264 10.264 0 0 1 2.257 1.847c.697.77 1.282 1.628 1.69 2.586 1.123 2.631.752 5.692-.91 8.013m-4.811-12.012v2.18H107.577c-.047 0-.12-.013-.156.024-.063.063-.024.282-.024.366v1.038h-5.368v-1.428h-2.15v-2.18h9.668m-1.88 2.886 1.068 1.534.376.556h-.512l-.239-.009-.233-.292-.565-.812h.09v-.661l.015-.316m-5.984.707v1.158l-.767-.015c.1-.264.33-.517.487-.752.084-.127.162-.294.28-.391m5.879.707c.154.2.377.44.466.676h-.481c0-.191-.059-.5.015-.676m-1.444 4.21h.015v-3.068c.355.166.687.412 1.023.614.111.067.337.15.405.263.054.088.016.285.016.386v4.676h-1.083c-.123 0-.333.04-.446-.009-.084-.037-.142-.187-.19-.262-.157-.24-.316-.478-.468-.721a92.479 92.479 0 0 0-1.166-1.804c-.194-.294-.477-.62-.601-.948h-.015v3.744h-1.579v-4.601l.009-.433.247-.165.646-.36.752-.421.268-.127.158.198.4.602 1.058 1.593.551.842m-4.78-1.774v4.646h-1.594v-3.488c0-.079-.028-.226.015-.295.07-.11.308-.182.42-.244.371-.206.76-.474 1.158-.619m8.766 4.646h-1.594v-4.646c.161.051.318.16.466.243.234.13.473.25.707.382.11.062.337.129.405.238.044.07.016.215.016.295v3.488m2.21-1.85 1.295 1.85.4.571.168.256-.062.135-.298.331c-.32-.519-.71-1.007-1.065-1.503-.133-.187-.382-.426-.446-.647-.038-.133-.008-.313-.008-.451 0-.156-.045-.398.015-.541m-15.365.992-.03 2.526 1.729-.015c-.039.162-.236.219-.376.266-.383.127-.784.187-1.173.292-.108.03-.364.17-.466.13-.104-.043-.207-.174-.286-.252-.17-.17-.346-.332-.508-.511-.059-.065-.201-.178-.203-.27 0-.064.06-.13.092-.181.079-.13.157-.262.237-.391.22-.354.432-.712.647-1.068.1-.165.195-.395.337-.526m15.365.451 1.354 1.895v.015c-.434.433-.858.855-1.338 1.238a8.403 8.403 0 0 1-.376.28c-.04.028-.098.087-.15.086-.05-.002-.087-.066-.115-.101-.084-.104-.164-.211-.247-.316-.335-.423-.709-.842-1.007-1.293h1.864v-1.263l.015-.541m-14.072 3.924c.048-.095.163-.154.24-.227.116-.108.211-.239.292-.374.124-.208.194-.454.23-.692.027-.173.01-.359.1-.511.05-.084.112-.268.207-.307.074-.03.19-.009.269-.009h9.697c.233 0 .542-.054.767.005.138.037.287.321.373.431.26.331.516.664.779.993.091.114.296.293.33.435.015.068-.099.113-.144.14a12.366 12.366 0 0 1-3.007 1.333c-3.362.97-7.109.567-10.133-1.217m.33-1.353c.017.384-.068.673-.36.946-.062.057-.194.209-.286.197-.09-.011-.197-.116-.27-.165-.233-.156-.445-.343-.677-.497v-.03l1.007-.236.586-.215m26.793 14.66-.406.12c-.766-1.136-1.588-2.239-2.384-3.353-1.453-2.032-2.9-4.066-4.343-6.104-.53-.749-1.063-1.495-1.596-2.24l-.374-.527c-.04-.057-.128-.138-.078-.21.043-.062.279-.316.354-.296.064.018.12.14.156.19.126.18.25.362.378.542.505.714 1 1.435 1.506 2.15 1.575 2.227 3.128 4.47 4.693 6.705l1.443 2.06c.144.206.287.412.432.616.076.108.178.22.219.346m-9.397-12.103c.736 1.083 1.522 2.134 2.279 3.203 1.503 2.123 3.012 4.243 4.525 6.36.516.72 1.027 1.444 1.542 2.164l.364.512c.045.063.13.145.138.225.014.134-.1.324-.163.436-.274.499-.8.416-1.228.178-.34-.189-.525-.464-.763-.764-.33-.413-.65-.833-.978-1.248-1.74-2.21-3.466-4.429-5.196-6.646-.54-.692-1.084-1.382-1.624-2.074l-.493-.632c-.085-.108-.198-.218-.252-.346.45-.25.876-.586 1.278-.908.178-.142.366-.364.57-.46m-22.236.24c.127.125.263.24.391.362.039.037.115.092.119.15.006.093-.16.205-.224.255-.28.224-.576.283-.917.346l.371-.676.26-.436m-2.63 4.676c.081-.227.24-.436.355-.647.272-.494.559-.98.834-1.473.12-.216.242-.432.365-.647.048-.084.092-.213.167-.276.08-.066.268-.062.368-.082.247-.05.487-.123.722-.214.198-.077.387-.175.571-.28.077-.045.168-.13.256-.15.08-.017.19.093.255.133.2.124.392.258.587.388.062.042.19.096.22.168.039.092-.062.265-.105.343-.174.318-.466.58-.747.802-.81.637-1.742 1.122-2.691 1.514-.361.149-.77.363-1.158.42m22.793-3.382c.358.541.812 1.036 1.212 1.548.878 1.126 1.765 2.243 2.643 3.368.378.484.827.954 1.152 1.474-.514-.076-1.042-.308-1.534-.471-.278-.093-.546-.217-.842-.12-.24.08-.367.298-.423.53-.057.241-.028.479-.044.722-.024.346-.074.69-.074 1.038-.18-.016-.368-.103-.541-.155-.305-.092-.611-.175-.917-.26a26 26 0 0 0-2.511-.544c-1.932-.336-3.894-.467-5.849-.515-.93-.023-1.866-.055-2.796-.014-2.26.099-4.487.382-6.706.841-.871.18-1.734.397-2.601.596-.372.086-.762.23-1.143.261 0-.355-.015-.712-.015-1.067 0-.213-.024-.422-.061-.632-.072-.407-.324-.856-.796-.841-.245.008-.505.148-.736.225-.423.14-.85.267-1.278.39-.222.064-.461.162-.692.18.166-.307.358-.574.544-.828.124-.088.334-.114.478-.163.33-.113.655-.238.978-.367.748-.3 1.503-.686 2.105-1.23.294-.266.555-.596.686-.974.044-.128.07-.258.089-.391.007-.053-.008-.129.022-.175.032-.05.115-.074.165-.102.118-.067.233-.138.346-.214.308-.208.59-.467.839-.742.186-.206.359-.421.52-.647.048-.067.127-.238.207-.266.047-.016.108.032.148.052.116.059.229.124.345.18.477.233.964.447 1.459.639a17.327 17.327 0 0 0 5.036 1.123c2.534.174 5.088-.132 7.488-.986a16.967 16.967 0 0 0 2.09-.91c.218-.114.434-.233.646-.358.112-.066.235-.166.361-.195m-20.297 2.781c-.07.556-.453.944-.902 1.243-.78.52-1.7.83-2.586 1.118.258-.435.527-.862.802-1.286l.25-.113.541-.216 1.263-.505.632-.24m-2.496 7.667c-.287.023-.577.122-.857.186-.582.133-1.161.28-1.744.41-2.02.448-4.101.879-6.18.788-.88-.039-1.786-.154-2.585-.553-.27-.135-.615-.313-.797-.56.79 0 1.54-.151 2.27-.458.236-.099.465-.211.692-.328.123-.063.242-.153.376-.192v-.015c-.938-.217-1.921-.528-2.782-.958-.351-.176-.807-.429-1.037-.756.555 0 1.112.084 1.669.09 1.175.015 2.35-.072 3.518-.197a38.116 38.116 0 0 0 2.706-.41c.435-.079.884-.228 1.323-.264-.343.631-1.648 3.017-2.39 4.375.766-.395 1.468-.736 2.15-1.116.093-.114.03-.79.094-1.124.004-.026 1.63-2.48 1.665-2.507.818-.27 1.661-.468 2.48-.741.237-.079.684-.231.79.135.06.209-.21.445-.354.546-.48.336-1.065.385-1.351.973-.164.337-.071.644-.002.992.112.558.273 1.12.346 1.684m31.86 1.113c-1.252-.233-2.491-.49-3.73-.784-.439-.104-.91-.17-1.338-.314.142-.593.155-1.244.23-1.85.016-.124.085-.212.117-.33.06-.214-.012-.444-.12-.631-.318-.558-.905-.63-1.37-.993-.106-.083-.383-.33-.313-.496.08-.188.383-.171.54-.12.544.179 1.086.366 1.638.524.166.047.395.072.541.165.141.09.25.292.352.423.228.292.456.583.686.872.601.759 1.193 1.525 1.792 2.286.323.41.686.812.974 1.248m-6.585-4.932c.358.388.853.48 1.248.804.096.08.18.175.25.279.044.065.08.135.105.21.215.64-.652.58-1.047.518a1.984 1.984 0 0 1-.24-.056c-.107-.03-.368-.08-.436-.172-.04-.053-.016-.18-.016-.245 0-.226.026-.45.044-.676.015-.177-.009-.515.092-.662m-23.83.105c.07.384.105.798.105 1.188 0 .09.042.327-.024.394-.102.104-.337.119-.472.141-.355.06-1.25.29-1.248-.294a.57.57 0 0 1 .021-.166c.158-.529.665-.638 1.091-.861.206-.108.35-.26.526-.402m25.32 1.97c-.066.833-.204 1.666-.304 2.496-.038.318-.014.722-.388.838-.264.083-.565.002-.827-.05-.556-.112-1.101-.276-1.654-.402a40.268 40.268 0 0 0-5.187-.82c-1.26-.12-2.524-.167-3.789-.198-.466-.011-.948-.05-1.413-.03-1.99.087-3.987.309-5.954.638a51.512 51.512 0 0 0-3.954.834c-.47.117-.948.238-1.429.304-.27.038-.557.076-.826.006-.46-.118-.505-.528-.587-.925-.18-.871-.372-1.742-.541-2.616 1.014.008 1.977-.234 2.962-.467 1.055-.25 2.109-.505 3.172-.717 1.608-.322 3.236-.567 4.871-.679 1.175-.08 2.354-.082 3.534-.076 2.609.013 5.263.242 7.818.803.77.17 1.533.377 2.285.61.392.122.752.325 1.158.415.345.076.703.051 1.052.036m-12.238 1.383.646.015.045-1.127c.164 0 .365-.007.512.074.286.156.486.54.674.798.062.085.13.229.22.285.046.029.12.015.173.022.193.025.407.023.602.024-.06-.14-.17-.267-.256-.391-.207-.3-.42-.694-.782-.827.234-.08.467-.08.661-.258.345-.318.245-.905-.15-1.127-.387-.219-.983-.162-1.413-.164-.19 0-.398.001-.586-.024a.748.748 0 0 0-.225.018c-.034.042-.016.137-.016.187 0 .145-.002.306-.02.45-.078.666-.085 1.375-.085 2.045m-3.563.106c.16 0 .32-.015.48-.015.056 0 .154.018.196-.024.137-.138.097-.492.272-.59.058-.032.146-.018.21-.018.15 0 .3-.01.45-.015.136-.003.271.003.406 0 .051-.001.117-.024.164 0 .183.097.175.446.327.577.046.04.13.01.186.01.169-.003.344.015.511-.016l-.267-.526-.752-1.443-.255-.496-.127-.187-.493.006-.171.024-.109.232-.208.496-.55 1.308-.27.677m-2.631-1.985.947-.09c.058.735.18 1.5.315 2.225l.647-.075-.17-1.158-.146-1.067.932-.09-.06-.452c-.627.013-1.287.107-1.91.19-.149.02-.3.025-.45.045-.043.006-.12-.005-.15.032-.057.072.028.353.045.44m9.652-.662-.286 2.692.647.045.285-2.691-.646-.046m1.428.15c-.022.521-.186 1.048-.257 1.564-.032.23-.077.52.021.737a.89.89 0 0 0 .432.417c.502.245 1.434.328 1.829-.146.168-.202.208-.487.258-.737.099-.498.218-1.027.258-1.533l-.631-.076c-.145.428-.17.938-.245 1.384-.032.195-.048.449-.165.616-.243.35-1.017.232-1.134-.18-.054-.188.023-.429.054-.617.074-.446.191-.902.227-1.353l-.647-.075m19.907.315c-.21.298-.604.524-.918.697-.601.33-1.255.531-1.909.728-.32.096-.662.24-.992.29v.014c.35.111.68.36 1.022.505a5.795 5.795 0 0 0 2.315.473c-.279.393-.896.64-1.338.787-.938.313-1.95.364-2.932.34-.335-.008-.671-.06-1.007-.06l.328-.556.117-.314.232-.083.436-.13-.5-.721-1.094-1.564-.496-.721c1.434.182 2.854.37 4.3.405.554.014 1.117.007 1.669-.03.254-.018.512-.059.767-.06m-24.086.527.03-.677c.28 0 .562.009.842.029.137.009.284.011.385.124.15.169.051.441-.145.516-.19.073-.434.037-.631.024-.161-.011-.32.004-.481-.016m-8.856-.52c-.337.046-.678.126-.947.346-.637.522-.519 1.622.09 2.121.364.298.856.361 1.308.303.29-.037.585-.123.827-.292.67-.47.624-1.527.074-2.077-.343-.344-.88-.465-1.352-.401m6.09.069c.131.317.405.654.465.992l-.872.015.246-.632.16-.375m10.39 1.864-.632-.045c-.067.85.765 1.157 1.488 1.157.373 0 .778-.096.973-.45a.781.781 0 0 0 .085-.241c.115-.638-.554-.87-1.028-1.059-.16-.063-.511-.164-.534-.37-.023-.198.261-.24.399-.24.33 0 .675.12.692.496.14.018.28.034.42.054.054.008.14.036.191.012.055-.026.036-.137.035-.186a.706.706 0 0 0-.3-.539c-.397-.29-1.085-.385-1.55-.232-.29.096-.562.384-.521.71.074.594.792.73 1.243.938.175.08.413.231.261.446-.229.324-.867.22-1.1-.045-.1-.115-.123-.26-.123-.406m-19.455-1.353.496 1.729c-.432-.32-.834-.69-1.248-1.034-.143-.12-.346-.367-.526-.417-.16-.044-.457.071-.616.113l.562 1.924.146.496.069.18.155-.011.42-.094-.495-1.699c.401.35.823.678 1.232 1.019.137.114.353.375.527.414.158.035.479-.073.631-.125-.278-.854-.566-1.74-.767-2.616l-.586.12m3.022-.115c.246-.03.513.02.707.18.346.29.494.994.202 1.364-.168.214-.41.281-.668.311-.722.086-1.26-.883-.896-1.484.14-.23.397-.34.655-.371m-2.51 1.845-.016.015z" transform="translate(-78.05 -187.939)"/></svg>